<svg width="101" height="101" viewBox="0 0 101 101" fill="none" xmlns="http://www.w3.org/2000/svg">
<path d="M37.1652 55.577C37.3984 55.6138 37.6351 55.6498 37.8788 55.6831C34.0101 57.7781 30.6494 60.6982 28.0348 64.2366C27.4877 64.9845 26.9748 65.753 26.4961 66.5424C26.049 66.5752 25.6186 66.6007 25.2012 66.6208C25.7238 65.7792 26.2831 64.9618 26.8793 64.1686C29.621 60.5703 33.1362 57.6341 37.1652 55.577V55.577Z" fill="white"/>
<path d="M38.4305 55.7542C38.6822 55.7853 38.9372 55.8156 39.2003 55.8441C35.6931 57.9568 32.6753 60.7911 30.347 64.1591C29.8621 64.8649 29.4106 65.5856 28.9924 66.3211C28.49 66.3711 28.0052 66.4149 27.5361 66.4557C28.0034 65.6662 28.5067 64.8952 29.0459 64.1429C31.5372 60.7067 34.7376 57.8459 38.4305 55.7542V55.7542Z" fill="white"/>
<path d="M39.7936 55.9027C40.0637 55.929 40.3381 55.9541 40.6196 55.9773C37.525 58.0963 34.9033 60.8338 32.92 64.017C32.5115 64.6785 32.1353 65.3492 31.7917 66.0291C31.2288 66.0888 30.6846 66.146 30.1592 66.2006C30.5581 65.468 30.992 64.7474 31.4611 64.0389C33.6423 60.7766 36.4803 58.0055 39.7936 55.9027V55.9027Z" fill="white"/>
<path d="M41.2522 56.0251C41.5416 56.0466 41.8353 56.0668 42.136 56.0852C39.4965 58.1964 37.3291 60.8375 35.7735 63.8382C35.4578 64.4563 35.1765 65.0788 34.9239 65.7043C34.2944 65.7661 33.6869 65.8284 33.0977 65.8898C33.4124 65.2146 33.7614 64.5454 34.1445 63.882C35.9484 60.8022 38.368 58.1276 41.2522 56.0251Z" fill="white"/>
<path d="M42.8113 56.1237C43.1182 56.1404 43.4306 56.156 43.7485 56.1706C41.5992 58.2692 39.9507 60.8253 38.9255 63.6488C38.7255 64.2188 38.5546 64.7986 38.4135 65.386C37.7148 65.443 37.037 65.502 36.3804 65.5631C36.5908 64.9406 36.8354 64.3193 37.1142 63.6991C38.4515 60.7967 40.3939 58.2138 42.8113 56.1237V56.1237Z" fill="white"/>
<path d="M44.464 56.2C44.7884 56.2127 45.1186 56.2244 45.4547 56.2351C43.8237 58.3431 42.7685 60.8387 42.3923 63.4774C42.3228 64.0201 42.2871 64.5666 42.2853 65.1138C41.512 65.1585 40.7607 65.2072 40.0312 65.2598C40.1164 64.6727 40.2355 64.091 40.3881 63.5177C41.1494 60.7907 42.5463 58.2829 44.464 56.2V56.2Z" fill="white"/>
<path d="M47.2512 56.2803C46.1796 58.4712 45.8068 60.9384 46.1833 63.3481C46.2715 63.8811 46.3963 64.4073 46.5568 64.9231C45.7055 64.949 44.8773 64.9807 44.0722 65.0183C44.0032 64.4696 43.9719 63.9169 43.9784 63.3639C44.0449 60.8332 44.8175 58.3715 46.2088 56.2566C46.5507 56.2658 46.8982 56.2736 47.2512 56.2803Z" fill="white"/>
<path d="M49.1346 56.3087C48.7485 58.6991 49.1612 61.1501 50.3086 63.2823C50.5882 63.8211 50.9003 64.3424 51.2432 64.8433C50.3121 64.846 49.4053 64.8555 48.5226 64.8718C48.2755 64.3507 48.0663 63.8124 47.8966 63.2612C47.1949 60.9835 47.246 58.5402 48.0421 56.2938C48.4016 56.2994 48.7646 56.3047 49.1346 56.3087Z" fill="white"/>
<path d="M51.0986 56.3215C51.6492 58.9126 52.8644 61.3158 54.6249 63.295C55.0562 63.8242 55.5227 64.3564 56.0189 64.8938C55.15 64.8723 54.259 64.857 53.3458 64.8477C52.9074 64.3064 52.5049 63.7663 52.1455 63.228C50.7066 61.2118 49.9416 58.7926 49.9598 56.3158C50.3342 56.3184 50.7147 56.3206 51.0986 56.3215Z" fill="white"/>
<path d="M53.1034 56.3193C54.5648 58.9521 56.4348 61.3362 58.6435 63.3827C59.1977 63.9338 59.7799 64.4917 60.383 65.0621C59.5922 65.02 58.7798 64.9835 57.9457 64.9525C57.3811 64.3857 56.8445 63.8268 56.343 63.2736C54.4012 61.2956 52.9048 58.9252 51.9541 56.3215C52.3407 56.3215 52.7238 56.3208 53.1034 56.3193Z" fill="white"/>
<path d="M53.939 56.3137C54.3107 56.3105 54.6798 56.307 55.0437 56.3023C57.2777 58.9002 59.7148 61.3164 62.332 63.5278C62.9852 64.1096 63.6585 64.7057 64.3433 65.3195C63.6287 65.2638 62.8923 65.2113 62.1338 65.1621C61.4711 64.5567 60.8276 63.9653 60.2094 63.3858C57.8383 61.2934 55.7324 58.9183 53.939 56.3137V56.3137Z" fill="white"/>
<path d="M55.8433 56.2894C56.2001 56.2833 56.5526 56.2763 56.9006 56.2684C59.4151 58.593 62.4548 60.9651 65.6978 63.708C66.429 64.3274 67.1693 64.9684 67.9186 65.6311C67.2742 65.5688 66.6096 65.5061 65.9258 65.447C65.1875 64.7929 64.4619 64.159 63.7489 63.5453C60.9887 61.2664 58.3499 58.8445 55.8433 56.2894V56.2894Z" fill="white"/>
<path d="M57.6636 56.2486C58.0046 56.239 58.3407 56.2286 58.6719 56.2175C62.0728 58.725 65.5096 61.2141 68.7544 63.8965C69.5452 64.5505 70.3395 65.2404 71.1295 65.9568C70.5517 65.8949 69.9555 65.8325 69.3409 65.7696C68.5484 65.0625 67.759 64.3821 66.9729 63.7285C63.6377 60.9414 60.4218 58.5627 57.6636 56.2486Z" fill="white"/>
<path d="M59.395 56.1899C59.7168 56.1771 60.0359 56.1631 60.3489 56.1473C64.2402 58.5414 67.971 61.1869 71.5177 64.0669C72.3523 64.7605 73.1835 65.4951 74.0024 66.2601C73.486 66.2071 72.952 66.1492 72.4032 66.0905C71.5729 65.3303 70.7356 64.5996 69.8975 63.9091C66.5536 61.1544 62.9783 58.6487 59.395 56.1899Z" fill="white"/>
<path d="M61.0327 56.1105C61.3369 56.093 61.6385 56.0754 61.9331 56.0553C66.1848 58.4138 70.2244 61.1358 74.0067 64.191C74.8704 64.8902 75.7278 65.6933 76.5642 66.5007C76.1039 66.4627 75.6278 66.4188 75.1386 66.3719C74.2847 65.5635 73.415 64.7889 72.5364 64.059C68.9138 61.1152 65.0676 58.4576 61.0327 56.1105V56.1105Z" fill="white"/>
<path d="M62.5757 56.008C62.8624 55.9865 63.143 55.9642 63.42 55.9396C67.9424 58.3029 72.2345 61.0828 76.2405 64.2432C77.1252 64.9626 77.9976 65.8034 78.8436 66.6428C78.4351 66.6271 78.0107 66.6025 77.575 66.5741C76.7061 65.7267 75.8145 64.8819 74.9115 64.1529C71.0695 61.0497 66.9386 58.3222 62.5757 56.008V56.008Z" fill="white"/>
<path d="M64.0215 55.8823C64.2897 55.8555 64.5528 55.828 64.8097 55.7977C69.578 58.1024 74.0812 60.9196 78.2396 64.1995C79.1571 64.9718 80.0342 65.791 80.8671 66.6538C80.5041 66.6657 80.129 66.667 79.7414 66.6622C78.8841 65.7845 77.9828 64.9508 77.041 64.1644C72.9859 60.9796 68.6247 58.2053 64.0215 55.8823V55.8823Z" fill="white"/>
<path d="M65.3691 55.7287C65.6181 55.6971 65.8621 55.6638 66.1012 55.6288C71.0648 57.8588 75.7396 60.6828 80.0229 64.0389C80.9464 64.8139 81.827 65.6386 82.6611 66.5091C82.3402 66.5526 82.007 66.5845 81.6633 66.6095C80.8034 65.7148 79.8955 64.8675 78.9437 64.0714C74.7489 60.786 70.195 57.9872 65.3691 55.7287V55.7287Z" fill="white"/>
<path d="M66.6196 55.5474C66.8494 55.5097 67.0755 55.4715 67.2948 55.4303C72.4072 57.5695 77.2194 60.3651 81.6102 63.7467C82.534 64.5117 83.4153 65.3269 84.25 66.1884C83.9659 66.2664 83.6714 66.334 83.3662 66.3914C82.5056 65.496 81.5956 64.6495 80.6405 63.8558C76.3287 60.5167 71.6191 57.7259 66.6196 55.5474V55.5474Z" fill="white"/>
<path d="M67.7705 55.3355C67.9826 55.2921 68.1896 55.2478 68.3912 55.2004C73.6094 57.2322 78.529 59.9602 83.0161 63.3103C83.9377 64.0516 84.8181 64.8427 85.6533 65.6801C85.4026 65.7945 85.1413 65.8976 84.8731 65.991C84.0113 65.112 83.1013 64.2818 82.1472 63.504C77.7334 60.1633 72.8998 57.417 67.7705 55.3355V55.3355Z" fill="white"/>
<path d="M68.8257 55.0926C69.0195 55.0435 69.208 54.9924 69.3912 54.9392C74.678 56.8454 79.6798 59.4644 84.2581 62.7238C85.1741 63.4284 86.0526 64.1803 86.8901 64.9766C86.6678 65.1288 86.4381 65.2697 86.2018 65.3988C85.339 64.5525 84.4305 63.754 83.4804 63.007C78.9741 59.7211 74.0446 57.059 68.8257 55.0926V55.0926Z" fill="white"/>
<path d="M69.7861 54.8182C69.9615 54.763 70.1315 54.7059 70.2963 54.6468C75.6194 56.4099 80.6821 58.8788 85.3491 61.9874C86.253 62.6151 87.1342 63.3612 87.9767 64.0797C87.783 64.2677 87.5819 64.4453 87.3735 64.6123C86.5076 63.8151 85.601 63.0634 84.6574 62.36C80.0613 59.19 75.0592 56.6533 69.7861 54.8182V54.8182Z" fill="white"/>
<path d="M70.6514 54.5118C70.8083 54.45 70.9609 54.3874 71.1082 54.322C76.4393 55.9289 81.5445 58.2068 86.3012 61.101C87.2016 61.674 88.0819 62.349 88.9245 62.9951C88.7561 63.2183 88.5807 63.4304 88.3984 63.6339C87.5304 62.9246 86.6212 62.186 85.6875 61.5625C81.003 58.5692 75.9484 56.199 70.6514 54.5118Z" fill="white"/>
<path d="M71.4238 54.1745C71.5624 54.107 71.6983 54.0378 71.828 53.9668C77.2086 55.5607 82.2743 57.1744 87.121 60.0737C88.0302 60.6168 88.899 61.1727 89.7415 61.7347C89.5969 61.9903 89.4452 62.2345 89.2882 62.4716C88.4203 61.8421 87.5129 61.1832 86.5809 60.6212C81.8088 57.8653 76.7191 55.7005 71.4238 54.1745Z" fill="white"/>
<path d="M72.106 53.8066C72.2278 53.7338 72.3453 53.6592 72.4575 53.583C77.7591 54.787 82.9107 56.5753 87.8179 58.9153C88.7236 59.3782 89.5925 59.8455 90.4359 60.3146C90.315 60.5986 90.1852 60.8735 90.0519 61.1414C89.1839 60.603 88.287 60.0682 87.349 59.5439C82.4866 56.8273 77.4382 55.3036 72.106 53.8066Z" fill="white"/>
<path d="M72.6968 53.4115C72.8019 53.333 72.9027 53.2532 72.9992 53.1721C78.2542 54.2041 83.4074 55.6997 88.3983 57.6414C89.3004 58.0144 90.1684 58.3865 91.0119 58.7539C90.9128 59.0626 90.8073 59.364 90.6953 59.6583C89.8265 59.22 88.9305 58.7789 87.995 58.341C83.0746 56.1868 77.9492 54.5353 72.6968 53.4115V53.4115Z" fill="white"/>
<path d="M73.2002 52.9894C73.2879 52.9061 73.3729 52.8224 73.4518 52.7369C78.6574 53.5944 83.8049 54.7731 88.8649 56.2662C89.7635 56.545 90.6306 56.8137 91.4732 57.0745C91.3961 57.4033 91.3111 57.726 91.2216 58.0433C90.3528 57.7124 89.4576 57.3744 88.5265 57.0312C83.529 55.2925 78.4051 53.9413 73.2002 52.9894Z" fill="white"/>
<path d="M73.6162 52.5452C73.6872 52.4584 73.7564 52.3699 73.8188 52.2809C78.9888 52.9862 84.1265 53.7885 89.2222 54.8103C90.1147 54.9892 90.9809 55.1528 91.8208 55.3012C91.7647 55.6458 91.7016 55.9847 91.6341 56.3204C90.7661 56.1016 89.8727 55.8715 88.946 55.6282C83.8916 54.3 78.789 53.3794 73.6162 52.5452Z" fill="white"/>
<path d="M73.9463 52.082C74.0015 51.9916 74.0532 51.9004 74.0997 51.8084C79.2269 52.2766 84.3707 52.8491 89.4716 53.2927C90.3588 53.3699 91.2198 53.4216 92.0571 53.4584C92.0229 53.814 91.9809 54.166 91.9343 54.5149C91.069 54.4115 90.1791 54.2927 89.2576 54.1528C84.1814 53.3822 79.0681 52.6817 73.9463 52.082Z" fill="white"/>
<path d="M89.4612 52.6255C84.3936 52.4348 79.2787 51.9662 74.1919 51.6032C74.2313 51.5103 74.2664 51.4165 74.2962 51.3222C79.3998 51.551 84.5374 51.8855 89.6137 51.7343C90.494 51.708 91.3506 51.6488 92.1818 51.572C92.1686 51.9329 92.1475 52.2928 92.123 52.6509C91.2628 52.664 90.3756 52.6596 89.4612 52.6255Z" fill="white"/>
<path d="M89.5583 51.0662C84.4941 51.3439 79.4189 51.3594 74.353 51.1126C74.3758 51.0184 74.3951 50.9236 74.4091 50.8281C79.4991 50.9717 84.5927 50.7476 89.6503 50.1574C90.5236 50.0281 91.3706 49.8584 92.1929 49.67C92.2008 50.0312 92.2017 50.3924 92.1973 50.7541C91.3451 50.8838 90.4658 50.9943 89.5583 51.0662Z" fill="white"/>
<path d="M74.4292 50.616C74.4374 50.5209 74.4403 50.4255 74.438 50.3301C79.5616 50.0707 84.6354 49.9062 89.5802 48.5841C90.4455 48.3527 91.2828 48.0765 92.0947 47.7776C92.1236 48.1348 92.1455 48.4925 92.1622 48.8528C91.3196 49.0975 90.449 49.321 89.5495 49.4985C84.5828 50.4791 79.5117 50.4998 74.4292 50.616Z" fill="white"/>
<path d="M74.4232 50.1176C74.4144 50.022 74.4022 49.9273 74.3838 49.8321C79.5425 49.3241 84.5636 48.9055 89.4049 47.0371C90.2606 46.7066 91.0848 46.3257 91.8843 45.922C91.9344 46.2696 91.9773 46.6211 92.0159 46.9744C91.1847 47.3299 90.3264 47.6614 89.4357 47.9427C84.5565 49.4845 79.5311 49.7559 74.4232 50.1176Z" fill="white"/>
<path d="M74.3336 49.6219C74.3082 49.5277 74.2801 49.4334 74.2451 49.34C79.4442 48.5812 84.4021 47.91 89.1216 45.5359C89.9591 45.1107 90.7736 44.6417 91.5616 44.1308C91.6335 44.464 91.6975 44.8016 91.7571 45.1435C90.933 45.6143 90.0846 46.0411 89.2154 46.4222C84.4477 48.4883 79.4792 49.0117 74.3336 49.6219Z" fill="white"/>
<path d="M74.1594 49.1339C74.1181 49.0414 74.0742 48.9489 74.0234 48.8573C79.2602 47.8499 84.1472 46.9293 88.7299 44.1032C89.5583 43.5885 90.3582 43.0292 91.126 42.4278C91.2198 42.7421 91.3048 43.063 91.3856 43.3878C90.5824 43.9562 89.7485 44.48 88.8877 44.9567C84.2471 47.5014 79.3444 48.2747 74.1594 49.1339Z" fill="white"/>
<path d="M73.9018 48.6569C73.8448 48.567 73.7834 48.4776 73.7168 48.389C78.9799 47.138 83.7923 45.9772 88.2286 42.7577C89.0456 42.1612 89.8294 41.5206 90.5765 40.8386C90.6922 41.1288 90.8007 41.426 90.9018 41.7302C90.1196 42.388 89.3012 43.0016 88.4504 43.5679C83.9493 46.5357 79.1184 47.5527 73.9018 48.6569Z" fill="white"/>
<path d="M73.5587 48.1958C73.4851 48.1094 73.4079 48.0244 73.3237 47.9398C78.5938 46.4559 83.3238 45.0676 87.6119 41.5181C88.416 40.8493 89.1828 40.1369 89.909 39.3841C90.0475 39.6472 90.1764 39.9189 90.3018 40.1969C89.5411 40.9335 88.7393 41.6265 87.9004 42.2725C83.5474 45.6045 78.7929 46.8543 73.5587 48.1958Z" fill="white"/>
<path d="M87.2359 41.0893C83.0293 44.7195 78.3607 46.1893 73.1292 47.7552C73.0389 47.6728 72.9451 47.5912 72.8442 47.5115C78.0977 45.8115 82.7392 44.2123 86.8765 40.3998C87.6655 39.6697 88.4144 38.8975 89.12 38.0865C89.2823 38.3179 89.4348 38.5591 89.583 38.808C88.8439 39.6117 88.0603 40.3733 87.2359 41.0893V41.0893Z" fill="white"/>
<path d="M72.6117 47.3374C72.5048 47.2598 72.3943 47.1831 72.2769 47.1081C77.4847 45.2135 82.0279 43.4241 86.0162 39.4161C86.7882 38.6373 87.5181 37.8178 88.2028 36.9612C88.3896 37.158 88.5676 37.3667 88.7394 37.5828C88.0217 38.4411 87.2569 39.2587 86.4484 40.032C82.3927 43.8948 77.8144 45.5655 72.6117 47.3374Z" fill="white"/>
<path d="M72.0069 46.9457C71.8824 46.8733 71.7553 46.8023 71.6211 46.7335C76.7483 44.6693 81.1846 42.7132 85.0221 38.5767C85.7754 37.7625 86.4857 36.9094 87.1499 36.021C87.363 36.1819 87.5672 36.3546 87.7654 36.5361C87.0689 37.4348 86.324 38.295 85.5341 39.1128C81.6248 43.1419 77.1508 44.9914 72.0069 46.9457Z" fill="white"/>
<path d="M71.3127 46.583C71.1707 46.5163 71.0252 46.4506 70.8726 46.3866C75.8858 44.1825 80.2002 42.0827 83.8852 37.8866C84.6168 37.0513 85.305 36.1789 85.9472 35.273C86.1902 35.3971 86.4242 35.5335 86.6495 35.6786C85.9751 36.6035 85.2516 37.4918 84.4822 38.3395C80.7237 42.4666 76.361 44.4718 71.3127 46.583Z" fill="white"/>
<path d="M70.5264 46.2502C70.3677 46.1893 70.2034 46.1301 70.0337 46.0727C74.8917 43.7567 79.0658 41.5434 82.5929 37.3478C83.2998 36.506 83.9641 35.6294 84.5832 34.7211C84.8585 34.8084 85.1233 34.9069 85.3802 35.0143C84.7285 35.9509 84.0281 36.8527 83.2821 37.716C79.6778 41.8766 75.4432 44.0114 70.5264 46.2502Z" fill="white"/>
<path d="M69.6466 45.9479C69.4687 45.893 69.2872 45.8404 69.0986 45.7891C73.7603 43.3939 77.7697 41.0981 81.1311 36.9582C81.8044 36.1284 82.44 35.2619 83.038 34.3587C83.3501 34.4104 83.6491 34.4735 83.9392 34.545C83.313 35.478 82.6394 36.3782 81.921 37.2423C78.4763 41.3787 74.3933 43.6136 69.6466 45.9479Z" fill="white"/>
<path d="M68.6717 45.6792C68.4761 45.6305 68.2762 45.5827 68.0693 45.5371C72.4933 43.0919 76.308 40.7418 79.4854 36.7084C80.1245 35.8961 80.7268 35.0518 81.2923 34.1755C81.6448 34.1948 81.9832 34.2246 82.311 34.2618C81.7096 35.1806 81.0678 36.0644 80.3857 36.9131C77.1129 40.9728 73.2053 43.2774 68.6717 45.6792Z" fill="white"/>
<path d="M67.602 45.4406C67.3871 45.3976 67.1697 45.356 66.9443 45.3169C71.0843 42.8489 74.6702 40.4734 77.6353 36.5864C78.2341 35.8026 78.7964 34.9919 79.3221 34.1543C79.7202 34.1447 80.1016 34.1438 80.4725 34.15C79.9061 35.0359 79.3014 35.8917 78.6585 36.7174C75.5803 40.6553 71.8804 43.0015 67.602 45.4406Z" fill="white"/>
<path d="M66.4349 45.2329C66.2026 45.1961 65.9647 45.161 65.7212 45.1277C69.5903 43.0338 72.9512 40.114 75.5652 36.5755C76.1132 35.8277 76.626 35.0586 77.1039 34.2684C77.551 34.236 77.9816 34.21 78.3988 34.1899C77.8772 35.032 77.3179 35.8496 76.7208 36.6426C73.9794 40.2408 70.4641 43.1766 66.4349 45.2329Z" fill="white"/>
<path d="M65.1698 45.0562C64.919 45.025 64.6629 44.9947 64.3999 44.9663C67.907 42.8538 70.9249 40.0198 73.2533 36.6522C73.739 35.9464 74.1905 35.2255 74.6079 34.4897C75.1102 34.4401 75.5956 34.3951 76.0641 34.3547C75.5968 35.1442 75.0936 35.9153 74.5544 36.6679C72.0636 40.1043 68.863 42.965 65.1698 45.0562V45.0562Z" fill="white"/>
<path d="M63.8068 44.9067C63.5377 44.8809 63.2624 44.8562 62.981 44.8327C66.0758 42.7142 68.6975 39.9767 70.6805 36.7934C71.089 36.1324 71.4651 35.462 71.8089 34.7822C72.3718 34.7221 72.9162 34.6648 73.4422 34.6103C73.0424 35.3429 72.6102 36.0644 72.1394 36.7719C69.9589 40.0344 67.1207 42.8052 63.8068 44.9067V44.9067Z" fill="white"/>
<path d="M62.3468 44.7848C62.0585 44.7632 61.7645 44.7432 61.4648 44.7247C64.104 42.6139 66.2712 39.9732 67.8265 36.973C68.1421 36.3549 68.4256 35.7327 68.6769 35.1064C69.3056 35.0441 69.9137 34.9824 70.5014 34.9214C70.1867 35.5965 69.8384 36.2655 69.4564 36.9283C67.6527 40.0086 65.2323 42.6833 62.3468 44.7848V44.7848Z" fill="white"/>
<path d="M60.7888 44.6862C60.482 44.6691 60.1696 44.6535 59.8516 44.6392C62.0006 42.541 63.6488 39.9852 64.6736 37.1619C64.8748 36.592 65.046 36.012 65.1865 35.4243C65.8853 35.3673 66.563 35.3087 67.2198 35.2485C67.0093 35.8706 66.7665 36.4921 66.4868 37.1112C65.1491 40.0134 63.2064 42.5962 60.7888 44.6862V44.6862Z" fill="white"/>
<path d="M59.1375 44.6099C58.8131 44.5972 58.4818 44.5854 58.146 44.5748C59.7771 42.4672 60.8324 39.9718 61.2084 37.3334C61.2786 36.7906 61.3146 36.2439 61.3162 35.6965C62.0895 35.6518 62.8406 35.6033 63.5695 35.551C63.4847 36.1378 63.3659 36.7192 63.2135 37.2922C62.4533 40.0197 61.0563 42.5277 59.1375 44.6099V44.6099Z" fill="white"/>
<path d="M56.3491 44.5297C57.6889 41.847 57.938 38.7499 57.0444 35.8876C57.8948 35.8613 58.7225 35.8295 59.5273 35.7921C59.5979 36.3406 59.6295 36.8934 59.622 37.4464C59.5552 39.9769 58.783 42.4385 57.3925 44.5537C57.0496 44.5446 56.7024 44.5367 56.3491 44.5297Z" fill="white"/>
<path d="M54.4669 44.5008C54.8518 42.1107 54.4389 39.6604 53.2921 37.5284C53.0131 36.9895 52.7013 36.4681 52.3584 35.9674C53.2895 35.9647 54.1969 35.9552 55.0807 35.9389C55.3258 36.4604 55.5341 36.9984 55.704 37.5491C56.4051 39.8268 56.3544 42.2698 55.5594 44.5165C55.1999 44.5104 54.8357 44.5051 54.4669 44.5008Z" fill="white"/>
<path d="M52.5026 44.4885C51.9516 41.8978 50.7365 39.4948 48.9764 37.5154C48.545 36.9867 48.0801 36.4536 47.5815 35.9161C48.4512 35.9381 49.3426 35.9538 50.2556 35.9631C50.6939 36.5045 51.0964 37.0446 51.4558 37.5829C52.8938 39.5992 53.6585 42.0181 53.6407 44.4946C53.2663 44.492 52.8869 44.49 52.5026 44.4885Z" fill="white"/>
<path d="M50.4969 44.4902C49.0347 41.8582 47.1649 39.4745 44.9568 37.4277C44.4026 36.8775 43.8205 36.3186 43.2173 35.7483C44.0081 35.7904 44.8209 35.8269 45.6555 35.8579C46.2193 36.4247 46.7532 36.9844 47.2573 37.5373C49.1995 39.5143 50.6957 41.8844 51.6454 44.4881C51.2588 44.4881 50.876 44.4888 50.4969 44.4902Z" fill="white"/>
<path d="M49.6619 44.4969C49.2894 44.4999 48.9211 44.5025 48.5564 44.5078C46.3224 41.9099 43.8853 39.4939 41.268 37.2825C40.614 36.7009 39.9436 36.1038 39.2568 35.4914C39.9723 35.5466 40.7087 35.6006 41.4662 35.6488C42.129 36.2541 42.7734 36.8451 43.3915 37.4246C45.7626 39.5172 47.8684 41.8923 49.6619 44.4969V44.4969Z" fill="white"/>
<path d="M47.757 44.5204C47.4001 44.5269 47.0476 44.5331 46.6996 44.541C44.186 42.2172 41.1463 39.8456 37.9033 37.1027C37.1711 36.4838 36.4306 35.8429 35.6816 35.18C36.3269 35.2423 36.9915 35.305 37.6744 35.3641C38.4127 36.0177 39.1383 36.6513 39.8514 37.265C42.6118 39.5433 45.2507 41.9651 47.757 44.5204V44.5204Z" fill="white"/>
<path d="M45.937 44.5617C45.5969 44.571 45.2611 44.5811 44.9296 44.592C41.5279 42.0854 38.0919 39.5977 34.8463 36.9145C34.0554 36.2608 33.2612 35.57 32.4712 34.8541C33.049 34.9155 33.6452 34.978 34.2598 35.0417C35.0514 35.7483 35.8432 36.427 36.6269 37.0819C39.9638 39.8681 43.1789 42.2476 45.937 44.5617Z" fill="white"/>
<path d="M44.2051 44.6205C43.8833 44.6331 43.5653 44.6471 43.2512 44.6625C39.3597 42.269 35.6289 39.6238 32.0824 36.7438C31.2469 36.0503 30.4175 35.316 29.5986 34.551C30.1141 34.6041 30.6472 34.662 31.197 34.7203C32.0272 35.4804 32.8645 36.2116 33.7027 36.9021C37.0465 39.6559 40.6218 42.1616 44.2051 44.6205Z" fill="white"/>
<path d="M42.5676 44.6998C42.2624 44.7169 41.9626 44.7352 41.668 44.7546C37.4161 42.3965 33.3762 39.6749 29.5936 36.6202C28.73 35.921 27.8725 35.1179 27.0361 34.3109C27.4964 34.3482 27.9716 34.3929 28.4617 34.4402C29.3165 35.2481 30.1854 36.0219 31.0638 36.7513C34.6861 39.6956 38.5323 42.3532 42.5676 44.6998V44.6998Z" fill="white"/>
<path d="M41.0251 44.8015C40.7385 44.8234 40.4561 44.8462 40.18 44.8704C35.6576 42.5075 31.3655 39.728 27.3594 36.568C26.4748 35.8483 25.6024 35.0083 24.7563 34.1689C25.1649 34.1846 25.5884 34.2096 26.025 34.2377C26.893 35.0854 27.7854 35.9289 28.6885 36.6584C32.5307 39.7613 36.6618 42.4882 41.0251 44.8015V44.8015Z" fill="white"/>
<path d="M39.5787 44.9277C39.3113 44.954 39.0483 44.9822 38.7913 45.012C34.0224 42.7087 29.5188 39.8922 25.3606 36.6123C24.4426 35.8407 23.5658 35.0213 22.7339 34.1575C23.096 34.1461 23.4712 34.1439 23.8587 34.1483C24.7157 35.0266 25.617 35.8606 26.5591 36.647C30.6144 39.8311 34.9756 42.605 39.5787 44.9277V44.9277Z" fill="white"/>
<path d="M38.2313 45.0811C37.9832 45.1127 37.7378 45.146 37.4993 45.1815C32.5356 42.952 27.8608 40.1283 23.5775 36.7723C22.6541 35.9974 21.7734 35.1729 20.9395 34.3025C21.2603 34.259 21.5935 34.2266 21.9372 34.2016C22.7973 35.0961 23.7052 35.9434 24.6568 36.7398C28.8516 40.0247 33.4056 42.8231 38.2313 45.0811V45.0811Z" fill="white"/>
<path d="M36.9814 45.2627C36.7518 45.3009 36.5265 45.3389 36.3064 45.3801C31.1941 43.2413 26.3819 40.4461 21.991 37.0651C21.0669 36.3 20.1856 35.4845 19.3511 34.6225C19.6351 34.5441 19.9306 34.4784 20.2348 34.42C21.0957 35.3151 22.0057 36.1616 22.9606 36.9556C27.2725 40.2942 31.9821 43.0845 36.9814 45.2627V45.2627Z" fill="white"/>
<path d="M35.8301 45.4748C35.6179 45.5178 35.4113 45.5629 35.2103 45.6099C29.9916 43.579 25.0718 40.8514 20.5845 37.5014C19.6628 36.7599 18.7825 35.9686 17.9473 35.131C18.198 35.0166 18.4593 34.9136 18.7284 34.8198C19.5897 35.6989 20.4994 36.5294 21.4533 37.3072C25.8669 40.648 30.7006 43.3941 35.8301 45.4748V45.4748Z" fill="white"/>
<path d="M34.7743 45.7177C34.5815 45.7668 34.392 45.818 34.2088 45.8711C28.9218 43.9656 23.9199 41.3467 19.342 38.087C18.4258 37.3827 17.5473 36.6307 16.71 35.8342C16.9322 35.682 17.1619 35.5411 17.3982 35.412C18.2605 36.2586 19.1688 37.0573 20.1188 37.8042C24.6255 41.0897 29.5552 43.7515 34.7743 45.7177V45.7177Z" fill="white"/>
<path d="M33.8141 45.9925C33.6397 46.0482 33.4687 46.1048 33.3038 46.1639C27.9808 44.4008 22.9182 41.9321 18.2511 38.8238C17.3472 38.1961 16.466 37.45 15.6235 36.7315C15.8164 36.543 16.0189 36.3668 16.2267 36.1989C17.0927 36.9961 17.9993 37.748 18.9428 38.4517C23.539 41.6214 28.541 44.1578 33.8141 45.9925V45.9925Z" fill="white"/>
<path d="M32.9493 46.2989C32.7923 46.3607 32.6398 46.423 32.4925 46.4883C27.1617 44.8817 22.0568 42.6041 17.3004 39.7102C16.3991 39.1372 15.5189 38.4622 14.6763 37.8161C14.8446 37.5929 15.0208 37.3808 15.2023 37.1773C16.0703 37.8866 16.9794 38.6248 17.9141 39.2482C22.5984 42.2413 27.6527 44.6115 32.9493 46.2989V46.2989Z" fill="white"/>
<path d="M32.1766 46.6361C32.0372 46.7036 31.9013 46.7729 31.7715 46.8439C26.3918 45.2495 21.326 43.6364 16.4794 40.7374C15.5702 40.1942 14.7014 39.6383 13.8589 39.0764C14.0035 38.8208 14.1543 38.5757 14.3113 38.3391C15.1801 38.9682 16.0883 39.6274 17.0195 40.1894C21.7915 42.9456 26.8813 45.1104 32.1766 46.6361V46.6361Z" fill="white"/>
<path d="M31.4955 47.0038C31.3735 47.0771 31.2543 47.1507 31.1421 47.2271C25.8405 46.024 20.6888 44.236 15.7817 41.896C14.8768 41.4331 14.0071 40.9649 13.1646 40.4958C13.2856 40.2118 13.4144 39.9373 13.5485 39.67C14.4165 40.2083 15.3135 40.7431 16.2516 41.2674C21.114 43.9831 26.1623 45.5072 31.4955 47.0038Z" fill="white"/>
<path d="M30.9035 47.3993C30.7992 47.4778 30.6974 47.5575 30.6019 47.6387C25.3467 46.6068 20.1932 45.1114 15.2019 43.1699C14.2998 42.7968 13.4318 42.4247 12.5884 42.0573C12.6875 41.7487 12.793 41.4472 12.9049 41.1529C13.7737 41.5913 14.6698 42.0315 15.6053 42.469C20.5255 44.6237 25.651 46.2756 30.9035 47.3993V47.3993Z" fill="white"/>
<path d="M30.4005 47.8215C30.3128 47.9043 30.2278 47.988 30.1489 48.0735C24.943 47.2162 19.7952 46.0377 14.7349 44.5447C13.8371 44.2663 12.97 43.9967 12.1274 43.7363C12.2046 43.4071 12.2882 43.084 12.3782 42.7671C13.2471 43.0981 14.1431 43.4369 15.0742 43.7801C20.0719 45.5181 25.1957 46.8692 30.4005 47.8215V47.8215Z" fill="white"/>
<path d="M29.984 48.265C29.913 48.3519 29.8446 48.4399 29.7824 48.5294C24.6122 47.8244 19.4745 47.0231 14.378 46.0013C13.4855 45.822 12.6192 45.6582 11.7793 45.5099C11.8354 45.1653 11.8986 44.8251 11.9661 44.4894C12.834 44.7086 13.7275 44.9395 14.6542 45.1828C19.7086 46.5111 24.8113 47.4313 29.984 48.265Z" fill="white"/>
<path d="M29.6552 48.7283C29.5991 48.819 29.5474 48.9098 29.5009 49.0018C24.3738 48.5341 19.2299 47.9611 14.129 47.5184C13.2418 47.4417 12.3799 47.39 11.5435 47.3527C11.5777 46.9976 11.6198 46.6456 11.6663 46.2962C12.5307 46.3997 13.4223 46.518 14.3438 46.6583C19.4192 47.4298 24.5231 48.1198 29.6552 48.7283Z" fill="white"/>
<path d="M14.1403 48.1856C19.207 48.376 24.3219 48.8441 29.4088 49.207C29.3693 49.2996 29.3343 49.3938 29.3045 49.488C24.2009 49.2596 19.0632 48.9252 13.9869 49.0769C13.1058 49.1031 12.2501 49.1623 11.4189 49.2391C11.433 48.8778 11.454 48.5188 11.4785 48.1607C12.3386 48.1476 13.225 48.1511 14.1403 48.1856Z" fill="white"/>
<path d="M29.2475 49.6971C29.2241 49.7911 29.2053 49.8862 29.1914 49.9821C24.1017 49.8391 19.0084 50.0634 13.951 50.6533C13.0769 50.783 12.2291 50.9527 11.4067 51.1411C11.3988 50.7799 11.3973 50.4183 11.4023 50.0561C12.2554 49.9264 13.1347 49.8164 14.0422 49.7445C19.1064 49.4668 24.1816 49.4509 29.2475 49.6971V49.6971Z" fill="white"/>
<path d="M29.1709 50.1935C29.1632 50.289 29.1603 50.3848 29.1621 50.4806C24.0385 50.7402 18.9649 50.9045 14.02 52.2266C13.1547 52.4576 12.3165 52.7356 11.5046 53.0341C11.4757 52.6768 11.4546 52.3174 11.438 51.9574C12.2805 51.7128 13.1511 51.4901 14.0506 51.3126C19.0182 50.3311 24.0894 50.3109 29.1709 50.1935Z" fill="white"/>
<path d="M29.1772 50.6922C29.1856 50.7881 29.1987 50.8835 29.2166 50.978C24.0579 51.4865 19.0368 51.9052 14.1955 53.7744C13.3509 54.1041 12.5233 54.4761 11.716 54.8888C11.6661 54.5411 11.6231 54.1895 11.5845 53.8367C12.4156 53.4807 13.274 53.1493 14.1648 52.8679C19.043 51.3261 24.0693 51.0552 29.1772 50.6922Z" fill="white"/>
<path d="M29.2668 51.1886C29.2922 51.2829 29.3202 51.3766 29.3544 51.47C24.1554 52.2294 19.1974 52.9018 14.4779 55.2751C13.6409 55.7009 12.8268 56.1701 12.0388 56.6809C11.9678 56.3478 11.9029 56.0089 11.8433 55.6674C12.6674 55.1968 13.5159 54.77 14.385 54.3887C19.1526 52.3223 24.1212 51.7989 29.2668 51.1886Z" fill="white"/>
<path d="M29.4414 51.6769C29.4818 51.7699 29.5274 51.8615 29.5774 51.9527C24.3414 52.9614 19.4518 53.881 14.87 56.7072C14.0418 57.222 13.2423 57.7815 12.4748 58.3831C12.381 58.0692 12.2959 57.7492 12.2144 57.4244C13.0177 56.8555 13.8519 56.3314 14.7131 55.8546C19.3537 53.3094 24.2564 52.5357 29.4414 51.6769Z" fill="white"/>
<path d="M29.6991 52.1534C29.757 52.2433 29.8174 52.3327 29.8842 52.4203C24.6219 53.6724 19.8086 54.8331 15.3723 58.053C14.5552 58.6495 13.7714 59.2904 13.0244 59.9727C12.9087 59.6824 12.8017 59.3839 12.6992 59.0805C13.481 58.4227 14.2994 57.8096 15.1505 57.2442C19.6508 54.2751 24.4826 53.2585 29.6991 52.1534Z" fill="white"/>
<path d="M30.0428 52.6142C30.1164 52.7005 30.1936 52.786 30.277 52.8701C25.0068 54.3549 20.2759 55.7441 15.9887 59.2922C15.1848 59.9613 14.4179 60.6737 13.6916 61.4263C13.5531 61.1637 13.4243 60.8924 13.2988 60.6144C14.0595 59.8779 14.8609 59.1848 15.6994 58.5383C20.0532 55.207 24.8078 53.9564 30.0428 52.6142Z" fill="white"/>
<path d="M16.3646 59.7219C20.5703 56.0913 25.2398 54.6219 30.4713 53.0552C30.5616 53.1376 30.6554 53.2187 30.7562 53.2989C25.5037 54.9993 20.8614 56.5984 16.7232 60.411C15.9346 61.1414 15.1859 61.9137 14.4805 62.7247C14.3192 62.4937 14.1657 62.2521 14.0176 62.0032C14.7567 61.1995 15.5403 60.4379 16.3646 59.7219V59.7219Z" fill="white"/>
<path d="M30.9876 53.4728C31.0955 53.5504 31.2059 53.6272 31.3234 53.7017C26.1164 55.5972 21.5722 57.3871 17.584 61.3946C16.812 62.1734 16.0821 62.9929 15.3974 63.8495C15.2097 63.6527 15.0327 63.4444 14.8608 63.2283C15.5782 62.3699 16.3427 61.5519 17.1508 60.7783C21.2075 56.9163 25.7859 55.2451 30.9876 53.4728Z" fill="white"/>
<path d="M31.5927 53.8644C31.7172 53.9372 31.846 54.0082 31.9801 54.0774C26.8521 56.1422 22.4158 58.0983 18.5783 62.2347C17.8247 63.0487 17.1145 63.9018 16.4505 64.7904C16.2374 64.6291 16.0331 64.4563 15.835 64.2748C16.5309 63.3756 17.2758 62.5154 18.0663 61.6981C21.9739 57.6695 26.4505 55.8196 31.5927 53.8644Z" fill="white"/>
<path d="M32.288 54.2273C32.43 54.294 32.5747 54.3597 32.7273 54.4233C27.7149 56.6287 23.3996 58.7285 19.7155 62.9245C18.984 63.7601 18.2955 64.6323 17.6525 65.5377C17.4097 65.4136 17.1765 65.2782 16.9512 65.1335C17.6254 64.208 18.3489 63.3193 19.1185 62.4714C22.8762 58.3445 27.2406 56.339 32.288 54.2273Z" fill="white"/>
<path d="M33.0753 54.5605C33.2341 54.621 33.398 54.6804 33.5672 54.7385C28.71 57.054 24.5351 59.2678 21.0079 63.4629C20.301 64.3049 19.6368 65.1817 19.0177 66.0901C18.7415 66.0028 18.4776 65.9038 18.2207 65.796C18.8723 64.8596 19.5726 63.9581 20.3188 63.0952C23.9231 58.9346 28.1577 56.7993 33.0753 54.5605Z" fill="white"/>
<path d="M33.9545 54.8621C34.1316 54.9169 34.3131 54.9704 34.5016 55.0217C29.8382 57.417 25.8306 59.7141 22.4692 63.8536C21.795 64.6834 21.1593 65.5497 20.5622 66.4526C20.2502 66.4009 19.9512 66.3378 19.6602 66.2668C20.2868 65.3338 20.9604 64.4333 21.6784 63.5686C25.124 59.4321 29.2087 57.1969 33.9545 54.8621Z" fill="white"/>
<path d="M34.9286 55.132C35.1241 55.1807 35.324 55.2276 35.53 55.2732C31.1069 57.7189 27.2921 60.0694 24.1158 64.1028C23.4758 64.9147 22.8731 65.759 22.3079 66.6357C21.9554 66.6164 21.617 66.5866 21.2891 66.5498C21.8914 65.6306 22.5332 64.7467 23.2144 63.8981C26.4865 59.8375 30.395 57.533 34.9286 55.132Z" fill="white"/>
<path d="M35.999 55.3697C36.213 55.4123 36.4304 55.4538 36.6565 55.4933C32.5157 57.9613 28.9299 60.3382 25.9647 64.2248C25.3658 65.0086 24.8033 65.8194 24.277 66.6574C23.8799 66.6665 23.4985 66.6675 23.1284 66.6609C23.6939 65.7749 24.2983 64.9192 24.9416 64.0938C28.0198 60.155 31.7205 57.8088 35.999 55.3697Z" fill="white"/>
</svg>
